<svg width="106" height="45" viewBox="0 0 106 45" fill="none" xmlns="http://www.w3.org/2000/svg">
<path d="M24.992 22.8209V17.1329H29.072C32.528 17.1329 34.448 14.7569 34.448 11.9729C34.448 9.16492 32.552 6.81292 29.072 6.81292H21.584V22.8209H24.992ZM28.616 14.1329H24.992V9.81292H28.616C29.96 9.81292 30.968 10.6289 30.968 11.9729C30.968 13.2929 29.96 14.1329 28.616 14.1329ZM41.5381 23.1089C43.3381 23.1089 45.1621 22.5569 46.3141 21.5009L44.9701 19.5329C44.2261 20.2529 42.8581 20.6849 41.8741 20.6849C39.9061 20.6849 38.7301 19.4609 38.5381 17.9969H47.1541V17.3249C47.1541 13.5329 44.8021 10.9409 41.3461 10.9409C37.8181 10.9409 35.3461 13.6529 35.3461 17.0129C35.3461 20.7329 38.0101 23.1089 41.5381 23.1089ZM44.2021 15.9329H38.4901C38.6341 14.7809 39.4501 13.3649 41.3461 13.3649C43.3621 13.3649 44.1301 14.8289 44.2021 15.9329ZM52.4038 22.8209V15.1649C52.9078 14.4209 54.2518 13.8449 55.2598 13.8449C55.5958 13.8449 55.8838 13.8689 56.0998 13.9169V10.9409C54.6598 10.9409 53.2198 11.7809 52.4038 12.8129V11.2289H49.3558V22.8209H52.4038ZM68.5882 22.8209L64.4362 16.8689L68.3242 11.2289H64.9162L62.5402 14.8049L60.1402 11.2289H56.7322L60.5962 16.8689L56.4922 22.8209H59.8762L62.5402 18.9089L65.1802 22.8209H68.5882ZM74.7256 23.1089C76.5256 23.1089 78.3496 22.5569 79.5016 21.5009L78.1576 19.5329C77.4136 20.2529 76.0456 20.6849 75.0616 20.6849C73.0936 20.6849 71.9176 19.4609 71.7256 17.9969H80.3416V17.3249C80.3416 13.5329 77.9896 10.9409 74.5336 10.9409C71.0056 10.9409 68.5336 13.6529 68.5336 17.0129C68.5336 20.7329 71.1976 23.1089 74.7256 23.1089ZM77.3896 15.9329H71.6776C71.8216 14.7809 72.6376 13.3649 74.5336 13.3649C76.5496 13.3649 77.3176 14.8289 77.3896 15.9329ZM85.5913 22.8209V6.81292H82.5433V22.8209H85.5913ZM92.7896 23.1089C96.0056 23.1089 97.8056 21.5009 97.8056 19.3889C97.8056 14.7089 90.9416 16.1489 90.9416 14.4209C90.9416 13.7729 91.6616 13.2689 92.7656 13.2689C94.1816 13.2689 95.5016 13.8689 96.1976 14.6129L97.4216 12.5249C96.2696 11.6129 94.7096 10.9409 92.7416 10.9409C89.6936 10.9409 87.9896 12.6449 87.9896 14.5889C87.9896 19.1489 94.8776 17.5889 94.8776 19.5089C94.8776 20.2289 94.2536 20.7569 92.9336 20.7569C91.4936 20.7569 89.7656 19.9649 88.9256 19.1729L87.6056 21.3089C88.8296 22.4369 90.7736 23.1089 92.7896 23.1089Z" fill="#1C1E52"/>
<path d="M5.264 39.8293C8.608 39.8293 10.928 37.7173 10.928 34.5013C10.928 31.2853 8.608 29.1573 5.264 29.1573H1.056V39.8293H5.264ZM5.264 37.8293H3.328V31.1573H5.264C7.456 31.1573 8.608 32.6133 8.608 34.5013C8.608 36.3093 7.376 37.8293 5.264 37.8293ZM13.5004 31.2693C14.1724 31.2693 14.7164 30.7253 14.7164 30.0533C14.7164 29.3813 14.1724 28.8533 13.5004 28.8533C12.8444 28.8533 12.2844 29.3813 12.2844 30.0533C12.2844 30.7253 12.8444 31.2693 13.5004 31.2693ZM14.5244 39.8293V32.1013H12.4924V39.8293H14.5244ZM19.7073 42.9653C21.6113 42.9653 23.8833 42.2453 23.8833 39.3013V32.1013H21.8353V33.0933C21.2113 32.3093 20.3793 31.9093 19.4513 31.9093C17.4993 31.9093 16.0433 33.3173 16.0433 35.8453C16.0433 38.4213 17.5153 39.7813 19.4513 39.7813C20.3953 39.7813 21.2273 39.3333 21.8353 38.5653V39.3493C21.8353 40.8693 20.6833 41.3013 19.7073 41.3013C18.7313 41.3013 17.9153 41.0293 17.2913 40.3413L16.3793 41.8133C17.3553 42.6613 18.3793 42.9653 19.7073 42.9653ZM20.0913 37.9733C18.9393 37.9733 18.1393 37.1733 18.1393 35.8453C18.1393 34.5173 18.9393 33.7173 20.0913 33.7173C20.7633 33.7173 21.4993 34.0853 21.8353 34.5973V37.0933C21.4993 37.5893 20.7633 37.9733 20.0913 37.9733ZM26.9066 31.2693C27.5786 31.2693 28.1226 30.7253 28.1226 30.0533C28.1226 29.3813 27.5786 28.8533 26.9066 28.8533C26.2506 28.8533 25.6906 29.3813 25.6906 30.0533C25.6906 30.7253 26.2506 31.2693 26.9066 31.2693ZM27.9306 39.8293V32.1013H25.8986V39.8293H27.9306ZM32.5375 40.0213C33.3855 40.0213 33.9295 39.7973 34.2335 39.5253L33.8015 37.9893C33.6895 38.1013 33.4015 38.2133 33.0975 38.2133C32.6495 38.2133 32.3935 37.8453 32.3935 37.3653V33.8773H33.9615V32.1013H32.3935V29.9893H30.3455V32.1013H29.0655V33.8773H30.3455V37.9093C30.3455 39.2853 31.1135 40.0213 32.5375 40.0213ZM42.0238 39.8293V34.8373C42.0238 32.6133 40.4078 31.9093 38.6478 31.9093C37.4318 31.9093 36.2158 32.2933 35.2718 33.1253L36.0398 34.4853C36.6957 33.8773 37.4638 33.5733 38.2958 33.5733C39.3198 33.5733 39.9918 34.0853 39.9918 34.8693V35.9093C39.4798 35.3013 38.5677 34.9653 37.5438 34.9653C36.3118 34.9653 34.8558 35.6533 34.8558 37.4613C34.8558 39.1893 36.3118 40.0213 37.5438 40.0213C38.5518 40.0213 39.4638 39.6533 39.9918 39.0293V39.8293H42.0238ZM38.3598 38.6453C37.5598 38.6453 36.9038 38.2293 36.9038 37.5093C36.9038 36.7573 37.5598 36.3413 38.3598 36.3413C39.0158 36.3413 39.6558 36.5653 39.9918 37.0133V37.9733C39.6558 38.4213 39.0158 38.6453 38.3598 38.6453ZM46.0713 39.8293V29.1573H44.0393V39.8293H46.0713ZM62.1799 39.8293L58.0679 29.1573H55.2199L51.0919 39.8293H53.6839L54.3559 38.0213H58.9319L59.5879 39.8293H62.1799ZM58.3079 36.0213H54.9799L56.6439 31.4293L58.3079 36.0213ZM66.2854 42.9653C68.1894 42.9653 70.4614 42.2453 70.4614 39.3013V32.1013H68.4134V33.0933C67.7894 32.3093 66.9574 31.9093 66.0294 31.9093C64.0774 31.9093 62.6214 33.3173 62.6214 35.8453C62.6214 38.4213 64.0934 39.7813 66.0294 39.7813C66.9734 39.7813 67.8054 39.3333 68.4134 38.5653V39.3493C68.4134 40.8693 67.2614 41.3013 66.2854 41.3013C65.3094 41.3013 64.4934 41.0293 63.8694 40.3413L62.9574 41.8133C63.9334 42.6613 64.9574 42.9653 66.2854 42.9653ZM66.6694 37.9733C65.5174 37.9733 64.7174 37.1733 64.7174 35.8453C64.7174 34.5173 65.5174 33.7173 66.6694 33.7173C67.3414 33.7173 68.0774 34.0853 68.4134 34.5973V37.0933C68.0774 37.5893 67.3414 37.9733 66.6694 37.9733ZM76.1088 40.0213C77.3088 40.0213 78.5248 39.6533 79.2928 38.9493L78.3968 37.6373C77.9008 38.1173 76.9888 38.4053 76.3328 38.4053C75.0208 38.4053 74.2368 37.5893 74.1088 36.6133H79.8528V36.1653C79.8528 33.6373 78.2848 31.9093 75.9808 31.9093C73.6288 31.9093 71.9808 33.7173 71.9808 35.9573C71.9808 38.4373 73.7568 40.0213 76.1088 40.0213ZM77.8848 35.2373H74.0768C74.1728 34.4693 74.7168 33.5253 75.9808 33.5253C77.3248 33.5253 77.8368 34.5013 77.8848 35.2373ZM88.5685 39.8293V34.3733C88.5685 32.8693 87.7525 31.9093 86.0565 31.9093C84.7925 31.9093 83.8485 32.5173 83.3525 33.1093V32.1013H81.3205V39.8293H83.3525V34.6293C83.6885 34.1653 84.3125 33.7173 85.1125 33.7173C85.9765 33.7173 86.5365 34.0853 86.5365 35.1573V39.8293H88.5685ZM94.1861 40.0213C95.7701 40.0213 96.7301 39.3333 97.2421 38.6133L95.9141 37.3813C95.5461 37.8933 94.9861 38.2133 94.2821 38.2133C93.0501 38.2133 92.1861 37.3013 92.1861 35.9573C92.1861 34.6133 93.0501 33.7173 94.2821 33.7173C94.9861 33.7173 95.5461 34.0053 95.9141 34.5493L97.2421 33.3013C96.7301 32.5973 95.7701 31.9093 94.1861 31.9093C91.8021 31.9093 90.0901 33.5893 90.0901 35.9573C90.0901 38.3413 91.8021 40.0213 94.1861 40.0213ZM98.2985 42.8533C98.5545 42.9173 99.0665 42.9653 99.3065 42.9653C100.635 42.9333 101.659 42.5493 102.235 41.0933L105.867 32.1013H103.675L101.659 37.4773L99.6425 32.1013H97.4665L100.603 39.9413L100.315 40.5973C100.123 41.0133 99.7705 41.1573 99.2425 41.1573C99.0505 41.1573 98.7785 41.1093 98.6025 41.0293L98.2985 42.8533Z" fill="#1C1E52"/>
<g clip-path="url(#clip0)">
<path fill-rule="evenodd" clip-rule="evenodd" d="M6.46099 15.1336V21.8576H5.59138V22.7834H0.86961V21.8576H0V14.4512V7.04492H8.70688H9.42197V7.93752H10.8917V9.19526H12.0524V13.1935H10.8917V14.241H9.42197V15.1336H6.46099Z" fill="black"/>
<path fill-rule="evenodd" clip-rule="evenodd" d="M12.6996 6.22236V4.3339H10.4681V3.83228H2.63086V5.68017H10.4681V6.22974H11.8947V8.1514H14.0005V6.22236H12.6996Z" fill="black"/>
<path d="M6.46099 15.1336V21.8576H5.59138V22.7834H0.86961V21.8576H0V14.4512V7.04492H8.70688H9.42197V7.93752H10.8917V9.19526H12.0524V13.1935H10.8917V14.241H9.42197V15.1336H6.46099Z" fill="#1C1E52"/>
<path d="M12.6996 6.22236V4.3339H10.4681V3.83228H2.63086V5.68017H10.4681V6.22974H11.8947V8.1514H14.0005V6.22236H12.6996Z" fill="#1C1E52"/>
</g>
<defs>
<clipPath id="clip0">
<rect width="14" height="18.951" fill="white" transform="translate(0 3.83228)"/>
</clipPath>
</defs>
</svg>
